<svg id="Isolation_Mode" data-name="Isolation Mode" xmlns="http://www.w3.org/2000/svg" viewBox="0 0 125 104.65"><defs><style>.cls-1{fill:#052d79;}.cls-2{fill:#1991f3;}</style></defs><title>MS-web-logo</title><polygon class="cls-1" points="125 62.21 95.69 62.31 62.79 29.41 29.43 62.77 0 62.79 62.79 0 125 62.21"/><circle class="cls-2" cx="62.83" cy="62.74" r="14.05"/><path class="cls-1" d="M8.86,91.42a1.58,1.58,0,0,1,1.6-1.59h.35a1.64,1.64,0,0,1,1.45.83l3.86,6.28L20,90.64a1.57,1.57,0,0,1,1.43-.81h.36a1.58,1.58,0,0,1,1.59,1.59V103a1.58,1.58,0,0,1-1.59,1.6A1.6,1.6,0,0,1,20.2,103V95.72L17.4,100a1.49,1.49,0,0,1-2.65,0L12,95.78V103a1.56,1.56,0,0,1-1.58,1.56A1.54,1.54,0,0,1,8.86,103Z"/><path class="cls-1" d="M30.65,98.83,26,92.46a1.93,1.93,0,0,1-.39-1.14,1.55,1.55,0,0,1,1.6-1.53,1.83,1.83,0,0,1,1.57,1l3.53,5.08,3.58-5.12a1.84,1.84,0,0,1,1.54-1,1.47,1.47,0,0,1,1.55,1.55,2,2,0,0,1-.41,1.12l-4.69,6.32V103a1.6,1.6,0,1,1-3.19,0Z"/><path class="cls-1" d="M47.05,102.89a1.5,1.5,0,0,1-.6-1.2,1.46,1.46,0,0,1,1.49-1.47,1.51,1.51,0,0,1,.91.29,6.17,6.17,0,0,0,3.71,1.3c1.31,0,2.1-.52,2.1-1.37v0c0-.81-.5-1.22-2.93-1.84-2.92-.75-4.81-1.56-4.81-4.44v0c0-2.64,2.12-4.38,5.08-4.38A8.44,8.44,0,0,1,56.61,91a1.45,1.45,0,0,1,.7,1.26,1.47,1.47,0,0,1-1.49,1.48A1.59,1.59,0,0,1,55,93.5a6.07,6.07,0,0,0-3-1c-1.22,0-1.86.56-1.86,1.27v0c0,1,.62,1.26,3.13,1.91,2.94.76,4.6,1.82,4.6,4.35v0c0,2.88-2.2,4.5-5.33,4.5A9.37,9.37,0,0,1,47.05,102.89Z"/><path class="cls-1" d="M63.68,92.85H60.61a1.47,1.47,0,0,1,0-2.94h9.33a1.47,1.47,0,0,1,0,2.94H66.87V103a1.6,1.6,0,1,1-3.19,0Z"/><path class="cls-1" d="M73.5,98.2V91.38a1.6,1.6,0,0,1,3.2,0v6.74c0,2.36,1.18,3.59,3.13,3.59S83,100.53,83,98.22V91.38a1.6,1.6,0,0,1,3.19,0V98.1c0,4.4-2.47,6.55-6.36,6.55S73.5,102.48,73.5,98.2Z"/><path class="cls-1" d="M89.4,91.51a1.59,1.59,0,0,1,1.6-1.6h8.13a1.45,1.45,0,0,1,0,2.9H92.6V95.9h5.6a1.46,1.46,0,0,1,0,2.91H92.6V103a1.6,1.6,0,0,1-3.2,0Z"/><path class="cls-1" d="M103,91.51a1.58,1.58,0,0,1,1.59-1.6h8.13a1.45,1.45,0,0,1,0,2.9H106.2V95.9h5.6a1.46,1.46,0,0,1,0,2.91h-5.6V103a1.6,1.6,0,1,1-3.19,0Z"/></svg>